<svg id="visual" viewBox="0 0 900 600" width="900" height="600" xmlns="http://www.w3.org/2000/svg" xmlns:xlink="http://www.w3.org/1999/xlink" version="1.1"><rect x="0" y="0" width="900" height="600" fill="#799ba9"></rect><path d="M0 325L113 286L225 284L338 329L450 293L563 322L675 295L788 346L900 310L900 601L788 601L675 601L563 601L450 601L338 601L225 601L113 601L0 601Z" fill="#cf8476"></path><path d="M0 349L113 377L225 327L338 353L450 329L563 374L675 378L788 348L900 334L900 601L788 601L675 601L563 601L450 601L338 601L225 601L113 601L0 601Z" fill="#cd7a84"></path><path d="M0 389L113 423L225 425L338 414L450 412L563 402L675 386L788 394L900 384L900 601L788 601L675 601L563 601L450 601L338 601L225 601L113 601L0 601Z" fill="#c37495"></path><path d="M0 462L113 457L225 455L338 424L450 467L563 464L675 426L788 427L900 424L900 601L788 601L675 601L563 601L450 601L338 601L225 601L113 601L0 601Z" fill="#af73a5"></path><path d="M0 482L113 492L225 508L338 484L450 484L563 490L675 511L788 516L900 491L900 601L788 601L675 601L563 601L450 601L338 601L225 601L113 601L0 601Z" fill="#9275b3"></path><path d="M0 552L113 528L225 550L338 536L450 525L563 553L675 534L788 554L900 539L900 601L788 601L675 601L563 601L450 601L338 601L225 601L113 601L0 601Z" fill="#6a78ba"></path></svg>