<svg id="visual" viewBox="0 0 900 600" width="900" height="600" xmlns="http://www.w3.org/2000/svg" xmlns:xlink="http://www.w3.org/1999/xlink" version="1.1"><path d="M0 347L21.5 363.5C43 380 86 413 128.8 429.8C171.7 446.7 214.3 447.3 257.2 453C300 458.7 343 469.3 385.8 439.3C428.7 409.3 471.3 338.7 514.2 309C557 279.3 600 290.7 642.8 322.8C685.7 355 728.3 408 771.2 423.8C814 439.7 857 418.3 878.5 407.7L900 397L900 601L878.5 601C857 601 814 601 771.2 601C728.3 601 685.7 601 642.8 601C600 601 557 601 514.2 601C471.3 601 428.7 601 385.8 601C343 601 300 601 257.2 601C214.3 601 171.7 601 128.8 601C86 601 43 601 21.5 601L0 601Z" fill="#835382"></path><path d="M0 396L21.5 389.3C43 382.7 86 369.3 128.8 366.7C171.7 364 214.3 372 257.2 387.7C300 403.3 343 426.7 385.8 451.8C428.7 477 471.3 504 514.2 506.3C557 508.7 600 486.3 642.8 479.5C685.7 472.7 728.3 481.3 771.2 469.2C814 457 857 424 878.5 407.5L900 391L900 601L878.5 601C857 601 814 601 771.2 601C728.3 601 685.7 601 642.8 601C600 601 557 601 514.2 601C471.3 601 428.7 601 385.8 601C343 601 300 601 257.2 601C214.3 601 171.7 601 128.8 601C86 601 43 601 21.5 601L0 601Z" fill="#a5427d"></path><path d="M0 560L21.5 547.7C43 535.3 86 510.7 128.8 496.5C171.7 482.3 214.3 478.7 257.2 471.3C300 464 343 453 385.8 458.7C428.7 464.3 471.3 486.7 514.2 487.8C557 489 600 469 642.8 460.3C685.7 451.7 728.3 454.3 771.2 462C814 469.7 857 482.3 878.5 488.7L900 495L900 601L878.5 601C857 601 814 601 771.2 601C728.3 601 685.7 601 642.8 601C600 601 557 601 514.2 601C471.3 601 428.7 601 385.8 601C343 601 300 601 257.2 601C214.3 601 171.7 601 128.8 601C86 601 43 601 21.5 601L0 601Z" fill="#c62368"></path></svg>
